<?xml version="1.0" encoding="utf-8"?>
<svg xmlns="http://www.w3.org/2000/svg" viewBox="191.7355 197.703 87.2495 67.2353" width="87.2495px" height="67.2353px">
  <circle cx="158.662" cy="213.118" r="1.5" style="stroke-width: 1;" transform="matrix(4.361753940582275, 0, 0, 4.20219612121582, -437.0570068359375, -636.9285888671875)"/>
  <circle cx="151.662" cy="213.118" r="1.5" style="stroke-width: 1;" transform="matrix(4.361753940582275, 0, 0, 4.20219612121582, -437.0570068359375, -636.9285888671875)"/>
  <path d="M 261.53 248.129 L 217.912 248.129 C 215.989 248.129 214.288 246.911 213.734 245.133 L 201.582 206.107 L 196.103 206.107 C 192.749 206.107 190.647 202.607 192.326 199.804 C 193.107 198.501 194.546 197.703 196.103 197.703 L 204.827 197.703 C 206.755 197.703 208.456 198.922 209.006 200.699 L 210.689 206.107 L 274.615 206.107 C 277.664 206.103 279.775 209.041 278.702 211.789 L 265.617 245.406 C 264.98 247.045 263.349 248.129 261.53 248.129 Z M 221.157 239.725 L 258.507 239.725 L 268.321 214.512 L 213.306 214.512 L 221.157 239.725 Z" style="stroke-width: 1;"/>
</svg>