<?xml version="1.0" encoding="utf-8"?>
<svg xmlns="http://www.w3.org/2000/svg" viewBox="175.0392 162.2792 98.2289 97.8264" width="98.2289px" height="97.8264px">
  <g transform="matrix(0.10000000149011612, 0, 0, -0.10000000149011612, 159.96817016601562, 297.1056213378906)" fill="#c81c1c" stroke="none">
    <path d="M540 1339 c-124 -24 -267 -132 -329 -248 l-31 -59 97 -102 c53 -56 125 -122 160 -147 68 -48 174 -97 236 -108 20 -4 40 -11 42 -16 9 -14 -54 -129 -70 -129 -20 0 -182 71 -241 105 -27 16 -95 74 -151 128 -111 108 -112 108 -93 6 42 -224 256 -399 489 -399 176 0 370 127 436 283 l15 35 -97 102 c-141 148 -235 211 -378 250 -33 10 -60 21 -60 26 1 20 60 124 70 124 16 0 129 -47 195 -80 75 -39 110 -66 214 -168 l89 -87 -7 58 c-32 285 -301 481 -586 426z"/>
  </g>
</svg>